# xmcd
#
# Track frame offsets:
# 150
# 13237
# 31868
# 46610
# 64083
# 81282
# 100983
# 114027
# 130823
# 149803
# 167439
# 186137
# 203806
# 222945
# 240712
# 258511
#
# Disc length: 3703 seconds
#
#
# Revision: 0
# Processed by: cddbd v1.5.2PL0 Copyright (c) Steve Scherf et al.
# Submitted via: FreeRIP 2.951 
#
DISCID=dc0e7510
DTITLE=Kenn Starr - Starr Report
DYEAR=1900
DGENRE=Hip-Hop
TTITLE0=Starr Status INtro
TTITLE1=Against The Grain(IllMind)
TTITLE2=Relentless(Kev Brown)
TTITLE3=The Same pt2
TTITLE4=Mr Nice Guy
TTITLE5=Middle Fingaz
TTITLE6=U Will
TTITLE7=Never Too LAte
TTITLE8=Never Too Late
TTITLE9=Waitin On You(Khrysis)
TTITLE10=Inside
TTITLE11=Back At It Again
TTITLE12=Nothing But Time
TTITLE13=Another Day
TTITLE14=Know Too Much
TTITLE15=If(Talib Kweli Asheru)
EXTD=
EXTT0=
EXTT1=
EXTT2=
EXTT3=
EXTT4=
EXTT5=
EXTT6=
EXTT7=
EXTT8=
EXTT9=
EXTT10=
EXTT11=
EXTT12=
EXTT13=
EXTT14=
EXTT15=
PLAYORDER=
